<svg width="10" height="12" viewBox="0 0 10 12" fill="none" xmlns="http://www.w3.org/2000/svg">
<path d="M1 7C1 7.79112 1.2346 8.56448 1.67412 9.22228C2.11365 9.88008 2.73836 10.3928 3.46927 10.6955C4.20017 10.9983 5.00444 11.0775 5.78036 10.9231C6.55628 10.7688 7.26902 10.3878 7.82843 9.82843C8.38784 9.26902 8.7688 8.55629 8.92314 7.78036C9.07748 7.00444 8.99827 6.20017 8.69552 5.46927C8.39277 4.73836 7.88008 4.11365 7.22228 3.67412C6.56448 3.2346 5.79113 3 5 3" stroke="#BCBDBD" stroke-width="2" stroke-linecap="round" stroke-linejoin="round"/>
<path d="M3.00048 2.92881L4.51074 2" stroke="#BCBDBD" stroke-width="2" stroke-linecap="round" stroke-linejoin="round"/>
<path d="M3.00045 2.92817L4.41504 3.99707" stroke="#BCBDBD" stroke-width="2" stroke-linecap="round" stroke-linejoin="round"/>
</svg>
