<svg width="40" height="40" viewBox="0 0 40 40" fill="none" xmlns="http://www.w3.org/2000/svg">
    <g filter="url(#filter0_i)">
        <circle cx="20" cy="20" r="20" fill="#FBD570"/>
    </g>
    <path d="M9 11.4358C11.043 11.12 12.1857 10.5033 13.5708 8.96864" stroke="url(#paint0_linear)" stroke-width="2"
          stroke-linecap="round" stroke-linejoin="round"/>
    <path d="M30.8174 11.4358C28.7744 11.12 27.6317 10.5033 26.2466 8.96864" stroke="url(#paint1_linear)"
          stroke-width="2" stroke-linecap="round" stroke-linejoin="round"/>
    <path fill-rule="evenodd" clip-rule="evenodd"
          d="M16.8 30C16.5333 30 16 29.904 16 29.52C16 29.04 16.96 27 20 27C23.04 27 24 29.04 24 29.52C24 29.904 23.4667 30 23.2 30H20H16.8Z"
          fill="url(#paint2_linear)"/>
    <ellipse cx="14" cy="18.5" rx="3" ry="4.5" fill="url(#paint3_linear)"/>
    <circle cx="13" cy="17" r="1" fill="#7D8188"/>
    <ellipse cx="26" cy="18.5" rx="3" ry="4.5" fill="url(#paint4_linear)"/>
    <circle cx="25" cy="17" r="1" fill="#7D8188"/>
    <g filter="url(#filter1_i)">
        <path d="M34 33.7143C34 36.0812 32.2091 38 30 38C27.7909 38 26 36.0812 26 33.7143C26 30.7143 30 23 30 23C30 23 34 30.7143 34 33.7143Z"
              fill="#83CBFA"/>
    </g>
    <circle cx="29" cy="29" r="1" fill="white" fill-opacity="0.4"/>
    <defs>
        <filter id="filter0_i" x="0" y="-4" width="40" height="44" filterUnits="userSpaceOnUse"
                color-interpolation-filters="sRGB">
            <feFlood flood-opacity="0" result="BackgroundImageFix"/>
            <feBlend mode="normal" in="SourceGraphic" in2="BackgroundImageFix" result="shape"/>
            <feColorMatrix in="SourceAlpha" type="matrix" values="0 0 0 0 0 0 0 0 0 0 0 0 0 0 0 0 0 0 127 0"
                           result="hardAlpha"/>
            <feOffset dy="-6"/>
            <feGaussianBlur stdDeviation="2"/>
            <feComposite in2="hardAlpha" operator="arithmetic" k2="-1" k3="1"/>
            <feColorMatrix type="matrix" values="0 0 0 0 0.952941 0 0 0 0 0.764706 0 0 0 0 0.219608 0 0 0 1 0"/>
            <feBlend mode="normal" in2="shape" result="effect1_innerShadow"/>
        </filter>
        <filter id="filter1_i" x="26" y="21" width="8" height="17" filterUnits="userSpaceOnUse"
                color-interpolation-filters="sRGB">
            <feFlood flood-opacity="0" result="BackgroundImageFix"/>
            <feBlend mode="normal" in="SourceGraphic" in2="BackgroundImageFix" result="shape"/>
            <feColorMatrix in="SourceAlpha" type="matrix" values="0 0 0 0 0 0 0 0 0 0 0 0 0 0 0 0 0 0 127 0"
                           result="hardAlpha"/>
            <feOffset dy="-2"/>
            <feGaussianBlur stdDeviation="1"/>
            <feComposite in2="hardAlpha" operator="arithmetic" k2="-1" k3="1"/>
            <feColorMatrix type="matrix" values="0 0 0 0 0.0889236 0 0 0 0 0.51625 0 0 0 0 0.820833 0 0 0 0.4 0"/>
            <feBlend mode="normal" in2="shape" result="effect1_innerShadow"/>
        </filter>
        <linearGradient id="paint0_linear" x1="11.2854" y1="10.2022" x2="11.5047" y2="10.6085"
                        gradientUnits="userSpaceOnUse">
            <stop stop-color="#293545"/>
            <stop offset="1" stop-color="#121A25"/>
        </linearGradient>
        <linearGradient id="paint1_linear" x1="28.532" y1="10.2022" x2="28.3127" y2="10.6085"
                        gradientUnits="userSpaceOnUse">
            <stop stop-color="#293545"/>
            <stop offset="1" stop-color="#121A25"/>
        </linearGradient>
        <linearGradient id="paint2_linear" x1="20.2504" y1="30" x2="20.2504" y2="27.1477"
                        gradientUnits="userSpaceOnUse">
            <stop stop-color="#111924"/>
            <stop offset="1" stop-color="#2A3647"/>
        </linearGradient>
        <linearGradient id="paint3_linear" x1="14" y1="14" x2="14" y2="23" gradientUnits="userSpaceOnUse">
            <stop stop-color="#2C3849"/>
            <stop offset="1" stop-color="#101722"/>
        </linearGradient>
        <linearGradient id="paint4_linear" x1="26" y1="14" x2="26" y2="23" gradientUnits="userSpaceOnUse">
            <stop stop-color="#2C3849"/>
            <stop offset="1" stop-color="#101722"/>
        </linearGradient>
    </defs>
</svg>
