<svg width="40" height="40" viewBox="0 0 40 40" fill="none" xmlns="http://www.w3.org/2000/svg">
    <g filter="url(#filter0_i)">
        <circle cx="20" cy="20" r="20" fill="#FBD570"/>
    </g>
    <ellipse cx="14" cy="15" rx="3" ry="5" fill="url(#paint0_linear)"/>
    <circle cx="13" cy="13" r="1" fill="#7D8188"/>
    <ellipse cx="26" cy="15" rx="3" ry="5" fill="url(#paint1_linear)"/>
    <circle cx="25" cy="13" r="1" fill="#7D8188"/>
    <path fill-rule="evenodd" clip-rule="evenodd"
          d="M11.6939 23.7654C10.9626 23.7654 9.5 24.0609 9.5 25.2429C9.5 26.6942 12.04 32.7786 20.0309 32.9941V33C20.1044 33 20.1775 32.9995 20.2501 32.9985C20.3228 32.9995 20.3959 33 20.4694 33V32.9941C28.4603 32.7786 31.0003 26.6942 31.0003 25.2429C31.0003 24.0609 29.5377 23.7654 28.8064 23.7654H20.4694H20.0309H11.6939Z"
          fill="url(#paint2_linear)"/>
    <path d="M11.2578 25.301C11.2578 24.9375 11.5525 24.6428 11.916 24.6428H28.1507C28.5142 24.6428 28.8088 24.9375 28.8088 25.301C28.8088 26.3915 27.9248 27.2755 26.8343 27.2755H13.2323C12.1418 27.2755 11.2578 26.3915 11.2578 25.301Z"
          fill="#FAFAF9"/>
    <defs>
        <filter id="filter0_i" x="0" y="-4" width="40" height="44" filterUnits="userSpaceOnUse"
                color-interpolation-filters="sRGB">
            <feFlood flood-opacity="0" result="BackgroundImageFix"/>
            <feBlend mode="normal" in="SourceGraphic" in2="BackgroundImageFix" result="shape"/>
            <feColorMatrix in="SourceAlpha" type="matrix" values="0 0 0 0 0 0 0 0 0 0 0 0 0 0 0 0 0 0 127 0"
                           result="hardAlpha"/>
            <feOffset dy="-6"/>
            <feGaussianBlur stdDeviation="2"/>
            <feComposite in2="hardAlpha" operator="arithmetic" k2="-1" k3="1"/>
            <feColorMatrix type="matrix" values="0 0 0 0 0.952941 0 0 0 0 0.764706 0 0 0 0 0.219608 0 0 0 1 0"/>
            <feBlend mode="normal" in2="shape" result="effect1_innerShadow"/>
        </filter>
        <linearGradient id="paint0_linear" x1="14" y1="10" x2="14" y2="20" gradientUnits="userSpaceOnUse">
            <stop stop-color="#2C3849"/>
            <stop offset="1" stop-color="#101722"/>
        </linearGradient>
        <linearGradient id="paint1_linear" x1="26" y1="10" x2="26" y2="20" gradientUnits="userSpaceOnUse">
            <stop stop-color="#2C3849"/>
            <stop offset="1" stop-color="#101722"/>
        </linearGradient>
        <linearGradient id="paint2_linear" x1="20.2501" y1="23.7654" x2="20.2501" y2="33"
                        gradientUnits="userSpaceOnUse">
            <stop stop-color="#111924"/>
            <stop offset="1" stop-color="#2A3647"/>
        </linearGradient>
    </defs>
</svg>
